<mxfile host="app.diagrams.net" modified="2021-08-03T01:19:25.623Z" agent="5.0 (Windows NT 10.0; Win64; x64) AppleWebKit/537.36 (KHTML, like Gecko) Chrome/92.0.4515.107 Safari/537.36" etag="ogcjFD7WUIWMJLx2KtW5" version="14.9.3" type="github">
  <diagram id="VNBneQ_uyRD08CQAz-Cm" name="Page-1">
    <mxGraphModel dx="868" dy="482" grid="1" gridSize="10" guides="1" tooltips="1" connect="1" arrows="1" fold="1" page="1" pageScale="1" pageWidth="850" pageHeight="1100" math="0" shadow="0">
      <root>
        <mxCell id="0" />
        <mxCell id="1" parent="0" />
        <mxCell id="nNwEtytCjcsInrszjYkT-34" value="" style="rounded=0;whiteSpace=wrap;html=1;fontSize=24;fontColor=none;strokeColor=#000000;fillColor=#ffffff;gradientColor=none;align=center;" vertex="1" parent="1">
          <mxGeometry x="730" y="410" width="20" height="20" as="geometry" />
        </mxCell>
        <mxCell id="e8L2LiHj3Q4WSBW1-jqx-27" value="" style="group" parent="1" vertex="1" connectable="0">
          <mxGeometry x="450" y="60" width="320" height="290" as="geometry" />
        </mxCell>
        <mxCell id="e8L2LiHj3Q4WSBW1-jqx-7" value="&lt;font style=&quot;font-size: 18px&quot;&gt;What symbol is this: ;&amp;nbsp;&lt;/font&gt;" style="text;html=1;strokeColor=none;fillColor=none;align=center;verticalAlign=middle;whiteSpace=wrap;rounded=0;fontSize=30;" parent="e8L2LiHj3Q4WSBW1-jqx-27" vertex="1">
          <mxGeometry y="50" width="320" height="20" as="geometry" />
        </mxCell>
        <mxCell id="nNwEtytCjcsInrszjYkT-24" value="" style="group" vertex="1" connectable="0" parent="e8L2LiHj3Q4WSBW1-jqx-27">
          <mxGeometry x="10" width="290" height="290" as="geometry" />
        </mxCell>
        <mxCell id="e8L2LiHj3Q4WSBW1-jqx-1" value="" style="whiteSpace=wrap;html=1;aspect=fixed;fillColor=#dae8fc;" parent="nNwEtytCjcsInrszjYkT-24" vertex="1">
          <mxGeometry width="290" height="290" as="geometry" />
        </mxCell>
        <mxCell id="e8L2LiHj3Q4WSBW1-jqx-14" value="&lt;font style=&quot;font-size: 17px&quot;&gt;What is this symbol? | ; |&lt;/font&gt;" style="rounded=0;whiteSpace=wrap;html=1;fontSize=30;align=left;fillColor=#b1ddf0;strokeColor=#10739e;" parent="nNwEtytCjcsInrszjYkT-24" vertex="1">
          <mxGeometry x="30" y="50" width="230" height="30" as="geometry" />
        </mxCell>
        <mxCell id="e8L2LiHj3Q4WSBW1-jqx-12" value="" style="rounded=1;whiteSpace=wrap;html=1;fontSize=30;align=left;fillColor=#ffe6cc;strokeColor=#d79b00;" parent="nNwEtytCjcsInrszjYkT-24" vertex="1">
          <mxGeometry x="30" y="170" width="230" height="30" as="geometry" />
        </mxCell>
        <mxCell id="e8L2LiHj3Q4WSBW1-jqx-13" value="" style="rounded=1;whiteSpace=wrap;html=1;fontSize=30;align=left;fillColor=#ffe6cc;strokeColor=#d79b00;" parent="nNwEtytCjcsInrszjYkT-24" vertex="1">
          <mxGeometry x="30" y="220" width="230" height="30" as="geometry" />
        </mxCell>
        <mxCell id="e8L2LiHj3Q4WSBW1-jqx-11" value="" style="rounded=1;whiteSpace=wrap;html=1;fontSize=30;align=left;fillColor=#ffe6cc;strokeColor=#d79b00;" parent="nNwEtytCjcsInrszjYkT-24" vertex="1">
          <mxGeometry x="30" y="120" width="230" height="30" as="geometry" />
        </mxCell>
        <mxCell id="e8L2LiHj3Q4WSBW1-jqx-9" value="&lt;font style=&quot;font-size: 16px&quot;&gt;b) Semi colon&lt;/font&gt;" style="text;html=1;strokeColor=none;fillColor=none;align=left;verticalAlign=middle;whiteSpace=wrap;rounded=0;fontSize=30;" parent="nNwEtytCjcsInrszjYkT-24" vertex="1">
          <mxGeometry x="70" y="170" width="130" height="20" as="geometry" />
        </mxCell>
        <mxCell id="e8L2LiHj3Q4WSBW1-jqx-8" value="&lt;font style=&quot;font-size: 16px&quot;&gt;a) Colon&lt;/font&gt;" style="text;html=1;strokeColor=none;fillColor=none;align=left;verticalAlign=middle;whiteSpace=wrap;rounded=0;fontSize=30;" parent="nNwEtytCjcsInrszjYkT-24" vertex="1">
          <mxGeometry x="70" y="120" width="130" height="20" as="geometry" />
        </mxCell>
        <mxCell id="e8L2LiHj3Q4WSBW1-jqx-10" value="&lt;font style=&quot;font-size: 16px&quot;&gt;c) Question mark&lt;/font&gt;" style="text;html=1;strokeColor=none;fillColor=none;align=left;verticalAlign=middle;whiteSpace=wrap;rounded=0;fontSize=30;" parent="nNwEtytCjcsInrszjYkT-24" vertex="1">
          <mxGeometry x="70" y="220" width="160" height="20" as="geometry" />
        </mxCell>
        <mxCell id="nNwEtytCjcsInrszjYkT-25" value="" style="group" vertex="1" connectable="0" parent="nNwEtytCjcsInrszjYkT-24">
          <mxGeometry x="20" y="10" width="260" height="20" as="geometry" />
        </mxCell>
        <mxCell id="e8L2LiHj3Q4WSBW1-jqx-20" value="" style="rounded=1;whiteSpace=wrap;html=1;fontSize=30;strokeColor=#000000;fillColor=#ffffff;gradientColor=none;align=left;" parent="nNwEtytCjcsInrszjYkT-25" vertex="1">
          <mxGeometry x="210" width="50" height="20" as="geometry" />
        </mxCell>
        <mxCell id="e8L2LiHj3Q4WSBW1-jqx-18" value="" style="ellipse;whiteSpace=wrap;html=1;fontSize=30;strokeColor=#d6b656;fillColor=#fff2cc;gradientColor=#ffd966;align=left;" parent="nNwEtytCjcsInrszjYkT-25" vertex="1">
          <mxGeometry width="40" height="20" as="geometry" />
        </mxCell>
        <mxCell id="e8L2LiHj3Q4WSBW1-jqx-3" value="Q1/8" style="text;html=1;align=center;verticalAlign=middle;whiteSpace=wrap;rounded=0;" parent="nNwEtytCjcsInrszjYkT-25" vertex="1">
          <mxGeometry width="40" height="20" as="geometry" />
        </mxCell>
        <mxCell id="e8L2LiHj3Q4WSBW1-jqx-4" value="Score:" style="text;html=1;strokeColor=#d6b656;fillColor=#fff2cc;align=left;verticalAlign=middle;whiteSpace=wrap;rounded=0;gradientColor=#ffd966;" parent="nNwEtytCjcsInrszjYkT-25" vertex="1">
          <mxGeometry x="210" width="50" height="20" as="geometry" />
        </mxCell>
        <mxCell id="e8L2LiHj3Q4WSBW1-jqx-71" value="" style="group" parent="1" vertex="1" connectable="0">
          <mxGeometry x="100" y="40" width="320" height="310" as="geometry" />
        </mxCell>
        <mxCell id="e8L2LiHj3Q4WSBW1-jqx-29" value="" style="group" parent="e8L2LiHj3Q4WSBW1-jqx-71" vertex="1" connectable="0">
          <mxGeometry y="20" width="320" height="290" as="geometry" />
        </mxCell>
        <mxCell id="e8L2LiHj3Q4WSBW1-jqx-30" value="" style="whiteSpace=wrap;html=1;aspect=fixed;fillColor=#dae8fc;" parent="e8L2LiHj3Q4WSBW1-jqx-29" vertex="1">
          <mxGeometry x="10" width="290" height="290" as="geometry" />
        </mxCell>
        <mxCell id="e8L2LiHj3Q4WSBW1-jqx-34" value="" style="rounded=1;whiteSpace=wrap;html=1;fontSize=30;align=left;fillColor=#ffe6cc;strokeColor=#d79b00;" parent="e8L2LiHj3Q4WSBW1-jqx-29" vertex="1">
          <mxGeometry x="40" y="160" width="230" height="40" as="geometry" />
        </mxCell>
        <mxCell id="e8L2LiHj3Q4WSBW1-jqx-40" value="&lt;span&gt;Start Quiz&lt;/span&gt;" style="text;html=1;strokeColor=none;fillColor=none;align=center;verticalAlign=middle;whiteSpace=wrap;rounded=0;fontSize=30;" parent="e8L2LiHj3Q4WSBW1-jqx-29" vertex="1">
          <mxGeometry x="80" y="170" width="140" height="20" as="geometry" />
        </mxCell>
        <mxCell id="e8L2LiHj3Q4WSBW1-jqx-44" value="Punctuation Quiz" style="rounded=0;whiteSpace=wrap;html=1;fontSize=24;strokeColor=#10739e;fillColor=#b1ddf0;align=center;" parent="e8L2LiHj3Q4WSBW1-jqx-29" vertex="1">
          <mxGeometry x="40" y="50" width="230" height="40" as="geometry" />
        </mxCell>
        <mxCell id="e8L2LiHj3Q4WSBW1-jqx-46" value="" style="rounded=0;whiteSpace=wrap;html=1;fontSize=24;fontColor=none;strokeColor=#000000;fillColor=#ffffff;gradientColor=none;align=center;" parent="e8L2LiHj3Q4WSBW1-jqx-71" vertex="1">
          <mxGeometry x="10" width="290" height="20" as="geometry" />
        </mxCell>
        <mxCell id="e8L2LiHj3Q4WSBW1-jqx-61" value="" style="group" parent="e8L2LiHj3Q4WSBW1-jqx-71" vertex="1" connectable="0">
          <mxGeometry x="280" width="20" height="20" as="geometry" />
        </mxCell>
        <mxCell id="e8L2LiHj3Q4WSBW1-jqx-62" value="" style="rounded=0;whiteSpace=wrap;html=1;fontSize=24;fontColor=none;strokeColor=#000000;fillColor=#ffffff;gradientColor=none;align=center;" parent="e8L2LiHj3Q4WSBW1-jqx-61" vertex="1">
          <mxGeometry width="20" height="20" as="geometry" />
        </mxCell>
        <mxCell id="e8L2LiHj3Q4WSBW1-jqx-63" value="" style="verticalLabelPosition=bottom;verticalAlign=top;html=1;shape=mxgraph.flowchart.collate;fontSize=24;fontColor=none;strokeColor=#000000;fillColor=#ffffff;gradientColor=none;" parent="e8L2LiHj3Q4WSBW1-jqx-61" vertex="1">
          <mxGeometry width="20" height="20" as="geometry" />
        </mxCell>
        <mxCell id="e8L2LiHj3Q4WSBW1-jqx-70" value="&lt;span style=&quot;font-size: 14px&quot;&gt;Punctuation Quiz Menu&amp;nbsp;&lt;/span&gt;" style="text;html=1;strokeColor=none;fillColor=none;align=left;verticalAlign=middle;whiteSpace=wrap;rounded=0;fontSize=24;fontColor=none;" parent="e8L2LiHj3Q4WSBW1-jqx-71" vertex="1">
          <mxGeometry x="10" width="190" height="20" as="geometry" />
        </mxCell>
        <mxCell id="nNwEtytCjcsInrszjYkT-22" value="" style="group" vertex="1" connectable="0" parent="1">
          <mxGeometry x="800" y="40" width="320" height="310" as="geometry" />
        </mxCell>
        <mxCell id="e8L2LiHj3Q4WSBW1-jqx-72" value="" style="group;align=left;" parent="nNwEtytCjcsInrszjYkT-22" vertex="1" connectable="0">
          <mxGeometry width="320" height="310" as="geometry" />
        </mxCell>
        <mxCell id="e8L2LiHj3Q4WSBW1-jqx-73" value="" style="group" parent="e8L2LiHj3Q4WSBW1-jqx-72" vertex="1" connectable="0">
          <mxGeometry y="15" width="320" height="290" as="geometry" />
        </mxCell>
        <mxCell id="e8L2LiHj3Q4WSBW1-jqx-74" value="" style="whiteSpace=wrap;html=1;aspect=fixed;fillColor=#dae8fc;" parent="e8L2LiHj3Q4WSBW1-jqx-73" vertex="1">
          <mxGeometry x="10" width="290" height="290" as="geometry" />
        </mxCell>
        <mxCell id="e8L2LiHj3Q4WSBW1-jqx-77" value="All done! Here are your results" style="rounded=0;whiteSpace=wrap;html=1;fontSize=24;strokeColor=#10739e;fillColor=#b1ddf0;align=center;" parent="e8L2LiHj3Q4WSBW1-jqx-73" vertex="1">
          <mxGeometry x="30" y="25" width="250" height="60" as="geometry" />
        </mxCell>
        <mxCell id="e8L2LiHj3Q4WSBW1-jqx-75" value="&lt;font style=&quot;font-size: 20px&quot;&gt;Export&lt;/font&gt;" style="rounded=1;whiteSpace=wrap;html=1;fontSize=30;align=center;fillColor=#ffe6cc;strokeColor=#d79b00;" parent="e8L2LiHj3Q4WSBW1-jqx-73" vertex="1">
          <mxGeometry x="30" y="245" width="70" height="30" as="geometry" />
        </mxCell>
        <mxCell id="nNwEtytCjcsInrszjYkT-3" value="&lt;font style=&quot;font-size: 20px&quot;&gt;Dismiss&lt;/font&gt;" style="rounded=1;whiteSpace=wrap;html=1;fontSize=30;align=center;fillColor=#ffe6cc;strokeColor=#d79b00;" vertex="1" parent="e8L2LiHj3Q4WSBW1-jqx-73">
          <mxGeometry x="200" y="243.48000000000002" width="80" height="33.04" as="geometry" />
        </mxCell>
        <mxCell id="nNwEtytCjcsInrszjYkT-4" value="&lt;font style=&quot;font-size: 11px&quot;&gt;1. What symbol is this? | ? |&amp;nbsp; b) Question mark&lt;br&gt;2 What goes at the end of a sentence? c) Full stop&lt;br&gt;3. What symbol is this? | ; | b) colon&lt;br&gt;4. What&#39;s the point of a comma? a) to signify a pause&amp;nbsp;&lt;br&gt;5. Ect..&lt;br&gt;6.&lt;br&gt;8.&lt;/font&gt;" style="text;html=1;strokeColor=none;fillColor=none;align=left;verticalAlign=middle;whiteSpace=wrap;rounded=0;" vertex="1" parent="e8L2LiHj3Q4WSBW1-jqx-73">
          <mxGeometry x="30" y="117" width="290" height="60" as="geometry" />
        </mxCell>
        <mxCell id="nNwEtytCjcsInrszjYkT-20" value="" style="verticalLabelPosition=bottom;verticalAlign=top;html=1;shape=mxgraph.basic.tick;fillColor=#008a00;fontColor=#ffffff;strokeColor=none;" vertex="1" parent="e8L2LiHj3Q4WSBW1-jqx-73">
          <mxGeometry x="10" y="142" width="20" height="10" as="geometry" />
        </mxCell>
        <mxCell id="nNwEtytCjcsInrszjYkT-21" value="&lt;font style=&quot;font-size: 16px&quot;&gt;6/8&lt;/font&gt;" style="ellipse;whiteSpace=wrap;html=1;align=center;fillColor=#fff2cc;strokeColor=#d6b656;gradientColor=#ffd966;" vertex="1" parent="e8L2LiHj3Q4WSBW1-jqx-73">
          <mxGeometry x="140" y="205" width="30" height="20" as="geometry" />
        </mxCell>
        <mxCell id="e8L2LiHj3Q4WSBW1-jqx-78" value="" style="rounded=0;whiteSpace=wrap;html=1;fontSize=24;fontColor=none;strokeColor=#000000;fillColor=#ffffff;gradientColor=none;align=center;" parent="e8L2LiHj3Q4WSBW1-jqx-72" vertex="1">
          <mxGeometry x="10" width="290" height="20" as="geometry" />
        </mxCell>
        <mxCell id="e8L2LiHj3Q4WSBW1-jqx-79" value="" style="group" parent="e8L2LiHj3Q4WSBW1-jqx-72" vertex="1" connectable="0">
          <mxGeometry x="280" width="20" height="20" as="geometry" />
        </mxCell>
        <mxCell id="e8L2LiHj3Q4WSBW1-jqx-80" value="" style="rounded=0;whiteSpace=wrap;html=1;fontSize=24;fontColor=none;strokeColor=#000000;fillColor=#ffffff;gradientColor=none;align=center;" parent="e8L2LiHj3Q4WSBW1-jqx-79" vertex="1">
          <mxGeometry width="20" height="20" as="geometry" />
        </mxCell>
        <mxCell id="e8L2LiHj3Q4WSBW1-jqx-81" value="" style="verticalLabelPosition=bottom;verticalAlign=top;html=1;shape=mxgraph.flowchart.collate;fontSize=24;fontColor=none;strokeColor=#000000;fillColor=#ffffff;gradientColor=none;" parent="e8L2LiHj3Q4WSBW1-jqx-79" vertex="1">
          <mxGeometry width="20" height="20" as="geometry" />
        </mxCell>
        <mxCell id="e8L2LiHj3Q4WSBW1-jqx-82" value="&lt;span style=&quot;font-size: 14px&quot;&gt;Punctuation Quiz Results&amp;nbsp;&lt;/span&gt;" style="text;html=1;strokeColor=none;fillColor=none;align=left;verticalAlign=middle;whiteSpace=wrap;rounded=0;fontSize=24;fontColor=none;" parent="e8L2LiHj3Q4WSBW1-jqx-72" vertex="1">
          <mxGeometry x="10" width="170" height="20" as="geometry" />
        </mxCell>
        <mxCell id="nNwEtytCjcsInrszjYkT-17" value="" style="verticalLabelPosition=bottom;verticalAlign=top;html=1;shape=mxgraph.basic.tick;fillColor=#008a00;fontColor=#ffffff;strokeColor=none;" vertex="1" parent="nNwEtytCjcsInrszjYkT-22">
          <mxGeometry x="10" y="117" width="20" height="10" as="geometry" />
        </mxCell>
        <mxCell id="nNwEtytCjcsInrszjYkT-18" value="" style="verticalLabelPosition=bottom;verticalAlign=top;html=1;shape=mxgraph.basic.tick;fillColor=#008a00;fontColor=#ffffff;strokeColor=none;" vertex="1" parent="nNwEtytCjcsInrszjYkT-22">
          <mxGeometry x="10" y="129" width="20" height="10" as="geometry" />
        </mxCell>
        <mxCell id="nNwEtytCjcsInrszjYkT-19" value="" style="verticalLabelPosition=bottom;verticalAlign=top;html=1;shape=mxgraph.basic.x;strokeColor=#B20000;fillColor=#e51400;fontColor=#ffffff;" vertex="1" parent="nNwEtytCjcsInrszjYkT-22">
          <mxGeometry x="14" y="144" width="10" height="10" as="geometry" />
        </mxCell>
        <mxCell id="nNwEtytCjcsInrszjYkT-23" value="" style="group" vertex="1" connectable="0" parent="1">
          <mxGeometry x="460" y="40" width="290" height="20" as="geometry" />
        </mxCell>
        <mxCell id="e8L2LiHj3Q4WSBW1-jqx-45" value="" style="rounded=0;whiteSpace=wrap;html=1;fontSize=24;fontColor=none;strokeColor=#000000;fillColor=#ffffff;gradientColor=none;align=center;" parent="nNwEtytCjcsInrszjYkT-23" vertex="1">
          <mxGeometry width="290" height="20" as="geometry" />
        </mxCell>
        <mxCell id="e8L2LiHj3Q4WSBW1-jqx-60" value="" style="group" parent="nNwEtytCjcsInrszjYkT-23" vertex="1" connectable="0">
          <mxGeometry x="270" width="20" height="20" as="geometry" />
        </mxCell>
        <mxCell id="e8L2LiHj3Q4WSBW1-jqx-52" value="" style="rounded=0;whiteSpace=wrap;html=1;fontSize=24;fontColor=none;strokeColor=#000000;fillColor=#ffffff;gradientColor=none;align=center;" parent="e8L2LiHj3Q4WSBW1-jqx-60" vertex="1">
          <mxGeometry width="20" height="20" as="geometry" />
        </mxCell>
        <mxCell id="e8L2LiHj3Q4WSBW1-jqx-51" value="" style="verticalLabelPosition=bottom;verticalAlign=top;html=1;shape=mxgraph.flowchart.collate;fontSize=24;fontColor=none;strokeColor=#000000;fillColor=#ffffff;gradientColor=none;" parent="e8L2LiHj3Q4WSBW1-jqx-60" vertex="1">
          <mxGeometry width="20" height="20" as="geometry" />
        </mxCell>
        <mxCell id="e8L2LiHj3Q4WSBW1-jqx-68" value="&lt;span style=&quot;font-size: 14px&quot;&gt;Punctuation Quiz Questions&amp;nbsp;&amp;nbsp;&lt;/span&gt;" style="text;html=1;strokeColor=none;fillColor=none;align=left;verticalAlign=middle;whiteSpace=wrap;rounded=0;fontSize=24;fontColor=none;" parent="nNwEtytCjcsInrszjYkT-23" vertex="1">
          <mxGeometry width="190" height="20" as="geometry" />
        </mxCell>
        <mxCell id="nNwEtytCjcsInrszjYkT-26" value="" style="group" vertex="1" connectable="0" parent="1">
          <mxGeometry x="465" y="400" width="320" height="310" as="geometry" />
        </mxCell>
        <mxCell id="nNwEtytCjcsInrszjYkT-32" value="" style="rounded=0;whiteSpace=wrap;html=1;fontSize=24;fontColor=none;strokeColor=#000000;fillColor=#ffffff;gradientColor=none;align=center;" vertex="1" parent="1">
          <mxGeometry x="460" y="410" width="270" height="20" as="geometry" />
        </mxCell>
        <mxCell id="nNwEtytCjcsInrszjYkT-36" value="&lt;span style=&quot;font-size: 14px&quot;&gt;Punctuation Quiz Exporter&lt;/span&gt;" style="text;html=1;strokeColor=none;fillColor=none;align=left;verticalAlign=middle;whiteSpace=wrap;rounded=0;fontSize=24;fontColor=none;" vertex="1" parent="1">
          <mxGeometry x="460" y="410" width="190" height="20" as="geometry" />
        </mxCell>
        <mxCell id="nNwEtytCjcsInrszjYkT-35" value="" style="verticalLabelPosition=bottom;verticalAlign=top;html=1;shape=mxgraph.flowchart.collate;fontSize=24;fontColor=none;strokeColor=#000000;fillColor=#ffffff;gradientColor=none;" vertex="1" parent="1">
          <mxGeometry x="730" y="410" width="20" height="20" as="geometry" />
        </mxCell>
        <mxCell id="nNwEtytCjcsInrszjYkT-40" value="" style="rounded=0;whiteSpace=wrap;html=1;align=left;fillColor=#dae8fc;strokeColor=#040608;" vertex="1" parent="1">
          <mxGeometry x="460" y="430" width="290" height="150" as="geometry" />
        </mxCell>
        <mxCell id="nNwEtytCjcsInrszjYkT-41" value="enter you file name. this will be exported as a .txt file and appear in the same folder as the program." style="text;html=1;strokeColor=none;fillColor=none;align=left;verticalAlign=middle;whiteSpace=wrap;rounded=0;" vertex="1" parent="1">
          <mxGeometry x="485" y="430" width="240" height="70" as="geometry" />
        </mxCell>
        <mxCell id="nNwEtytCjcsInrszjYkT-43" value="" style="rounded=1;whiteSpace=wrap;html=1;fontSize=30;align=left;fillColor=#ffe6cc;strokeColor=#d79b00;" vertex="1" parent="1">
          <mxGeometry x="490" y="490" width="230" height="30" as="geometry" />
        </mxCell>
        <mxCell id="nNwEtytCjcsInrszjYkT-44" value="&lt;span style=&quot;font-size: 20px&quot;&gt;save&amp;nbsp;&lt;/span&gt;" style="rounded=1;whiteSpace=wrap;html=1;fontSize=30;align=center;fillColor=#ffe6cc;strokeColor=#d79b00;" vertex="1" parent="1">
          <mxGeometry x="490" y="540" width="70" height="30" as="geometry" />
        </mxCell>
        <mxCell id="nNwEtytCjcsInrszjYkT-45" value="&lt;span style=&quot;font-size: 20px&quot;&gt;close&lt;/span&gt;" style="rounded=1;whiteSpace=wrap;html=1;fontSize=30;align=center;fillColor=#ffe6cc;strokeColor=#d79b00;" vertex="1" parent="1">
          <mxGeometry x="650" y="540" width="70" height="30" as="geometry" />
        </mxCell>
        <mxCell id="nNwEtytCjcsInrszjYkT-46" value="" style="curved=1;endArrow=classic;html=1;entryX=0.75;entryY=0;entryDx=0;entryDy=0;" edge="1" parent="1" target="nNwEtytCjcsInrszjYkT-36">
          <mxGeometry width="50" height="50" relative="1" as="geometry">
            <mxPoint x="850" y="310" as="sourcePoint" />
            <mxPoint x="780" y="350" as="targetPoint" />
            <Array as="points">
              <mxPoint x="780" y="400" />
              <mxPoint x="730" y="350" />
            </Array>
          </mxGeometry>
        </mxCell>
      </root>
    </mxGraphModel>
  </diagram>
</mxfile>
